<?xml version="1.0" encoding="UTF-8"?>
<svg class="Logo-object" fill="none" viewBox="0 0 529 113" xmlns="http://www.w3.org/2000/svg">
<g clip-path="url(#a)" fill="#000">
<path d="M154.859 11.227C146.807 3.742 135.967 0 122.338 0 108.71 0 97.87 3.742 89.818 11.227 81.766 18.713 77.74 29.424 77.74 43.36v26.016c0 13.937 4.027 24.647 12.08 32.13 8.052 7.484 18.892 11.227 32.519 11.231 13.627 0 24.467-3.743 32.521-11.228 8.053-7.485 12.079-18.195 12.078-32.13V43.36c0-13.937-4.026-24.648-12.078-32.133zm-8.363 58.769c0 7.433-2.116 13.369-6.349 17.809-4.233 4.439-10.169 6.659-17.809 6.658-7.537 0-13.447-2.22-17.731-6.658-4.283-4.44-6.425-10.376-6.426-17.809V42.741c0-7.433 2.142-13.37 6.426-17.81 4.284-4.439 10.195-6.658 17.731-6.658 7.639 0 13.575 2.22 17.809 6.659 4.234 4.439 6.35 10.375 6.349 17.809v27.255zM299.147 9.911h-19.511V33.76h-19.202v16.105h19.202v43.36c0 5.265 1.574 9.472 4.723 12.621 3.149 3.149 7.253 4.723 12.312 4.723h23.537V94.464h-16.721c-2.893 0-4.339-1.549-4.336-4.646V49.865h21.06V33.76h-21.064V9.91zm88.541 26.326c-6.093-3.098-12.959-4.646-20.596-4.646-7.638 0-14.503 1.55-20.595 4.646a34.825 34.825 0 00-14.403 13.472c-3.511 5.885-5.266 12.957-5.265 21.216v2.48c0 8.26 1.755 15.332 5.265 21.215a34.818 34.818 0 0014.403 13.472c6.087 3.096 12.952 4.645 20.595 4.645 7.642 0 14.508-1.549 20.596-4.646a34.837 34.837 0 0014.401-13.472c3.509-5.884 5.265-12.956 5.266-21.215v-2.48c0-8.259-1.755-15.33-5.266-21.216a34.846 34.846 0 00-14.401-13.472zm.155 36.7c0 7.227-1.962 12.776-5.885 16.647-3.923 3.87-8.879 5.806-14.866 5.806-5.989 0-10.944-1.935-14.867-5.806-3.922-3.87-5.884-9.418-5.885-16.643v-1.549c0-7.225 1.962-12.774 5.885-16.647 3.924-3.873 8.879-5.809 14.867-5.806 6.09 0 11.071 1.935 14.944 5.806 3.872 3.87 5.808 9.42 5.806 16.647l.001 1.545zm103.888-23.228a34.843 34.843 0 00-14.402-13.472c-6.093-3.098-12.958-4.646-20.595-4.646-7.637 0-14.503 1.55-20.596 4.646a34.825 34.825 0 00-14.403 13.472c-3.51 5.885-5.265 12.957-5.264 21.216v2.48c0 8.26 1.755 15.332 5.264 21.215a34.818 34.818 0 0014.403 13.472c6.09 3.096 12.956 4.645 20.596 4.645 7.64 0 14.505-1.549 20.595-4.646a34.84 34.84 0 0014.402-13.472c3.509-5.884 5.265-12.956 5.269-21.216v-2.48c0-8.26-1.756-15.331-5.266-21.216l-.003.002zm-14.247 23.232c0 7.227-1.961 12.776-5.884 16.647-3.924 3.87-8.879 5.806-14.866 5.806-5.989 0-10.945-1.935-14.867-5.806-3.923-3.87-5.884-9.42-5.885-16.647v-1.549c0-7.225 1.962-12.774 5.885-16.647 3.923-3.873 8.879-5.809 14.867-5.806 6.088 0 11.069 1.935 14.943 5.806 3.875 3.87 5.81 9.42 5.806 16.647l.001 1.549zM230.893 89.585c-3.925 3.87-8.88 5.806-14.866 5.806-5.987 0-10.942-1.935-14.867-5.806-3.925-3.87-5.887-9.42-5.885-16.647v-1.549c0-7.224 1.962-12.774 5.885-16.647 3.923-3.873 8.879-5.808 14.867-5.806 6.09 0 11.071 1.935 14.944 5.806a18.115 18.115 0 013.973 6.055l17.721-7.977a33.548 33.548 0 00-1.641-3.111 34.848 34.848 0 00-14.401-13.472c-6.093-3.098-12.958-4.646-20.596-4.646s-14.504 1.55-20.598 4.646a34.816 34.816 0 00-14.402 13.472c-3.511 5.885-5.266 12.957-5.265 21.216v2.48c0 8.26 1.755 15.332 5.265 21.216a34.826 34.826 0 0014.402 13.472c6.091 3.096 12.957 4.644 20.598 4.644 7.64 0 14.506-1.549 20.596-4.646a34.856 34.856 0 0014.401-13.472 38.023 38.023 0 004.996-15.796h-19.741c-.81 4.43-2.606 8.018-5.386 10.762zM58.846 26.713H42.748l11.383-11.38a3.1 3.1 0 000-4.38l-2.518-2.52a3.1 3.1 0 00-4.38 0L35.85 19.816v-16.1A3.1 3.1 0 0032.75.62h-3.56a3.097 3.097 0 00-3.097 3.097v16.098L14.713 8.432a3.095 3.095 0 00-4.38 0l-2.52 2.518a3.098 3.098 0 000 4.38l11.382 11.383H3.097A3.097 3.097 0 000 29.81v3.56a3.1 3.1 0 003.097 3.1h16.098L7.812 47.852a3.1 3.1 0 000 4.38l2.519 2.519a3.098 3.098 0 004.38 0l11.382-11.383v16.097a3.1 3.1 0 003.097 3.098h3.56a3.1 3.1 0 003.097-3.098V43.368L47.232 54.75a3.1 3.1 0 004.38 0l2.52-2.519a3.1 3.1 0 000-4.38L42.747 36.47h16.098a3.1 3.1 0 003.1-3.097V29.81a3.1 3.1 0 00-3.1-3.097z"/>
</g>
<defs>
<clipPath id="a">
<path d="M0 0h529v112.737H0z" fill="#fff"/>
</clipPath>
</defs>
</svg>
