<?xml version="1.0" encoding="UTF-8"?><svg id="Laag_2" xmlns="http://www.w3.org/2000/svg" viewBox="0 0 46 46"><g id="Laag_1-2"><path d="M46,21.36v3.28c0,1.03-.83,1.86-1.86,1.86h-12.69l8.97,8.97c.73,.73,.73,1.91,0,2.63l-2.32,2.32c-.72,.73-1.9,.73-2.63,0l-8.97-8.97v12.69c0,1.03-.83,1.86-1.86,1.86h-3.28c-1.03,0-1.86-.83-1.86-1.86v-12.69l-8.97,8.97c-.73,.73-1.91,.73-2.63,0l-2.32-2.32c-.73-.72-.73-1.9,0-2.63l8.97-8.97H1.86c-1.03,0-1.86-.83-1.86-1.86v-3.28c0-1.03,.83-1.86,1.86-1.86H14.55L5.58,10.53c-.73-.73-.73-1.91,0-2.63l2.32-2.32c.72-.73,1.9-.73,2.63,0l8.97,8.97V1.86c0-1.03,.83-1.86,1.86-1.86h3.28c1.03,0,1.86,.83,1.86,1.86V14.55l8.97-8.97c.73-.73,1.91-.73,2.63,0l2.32,2.32c.73,.72,.73,1.9,0,2.63l-8.97,8.97h12.69c1.03,0,1.86,.83,1.86,1.86Z"/></g></svg>